#define batt_width 19
#define batt_height 13
static char batt_bits[] = {
  0x00, 0x00, 0x00, 0x00, 0x00, 0x00, 0xFE, 0xFF, 0x00, 0xFE, 0xFE, 0x00, 
  0x3E, 0xFE, 0x03, 0x0E, 0xFE, 0x03, 0x02, 0x80, 0x03, 0xFE, 0xE0, 0x03, 
  0xFE, 0xF8, 0x03, 0xFE, 0xFE, 0x00, 0xFE, 0xFF, 0x00, 0x00, 0x00, 0x00, 
  0x00, 0x00, 0x00, };
