#define batt_on_width 19
#define batt_on_height 13
static char batt_on_bits[] = {
  0x00, 0x00, 0x00, 0x00, 0x00, 0x00, 0xA8, 0x00, 0x00, 0xA8, 0x00, 0x00, 
  0xFE, 0x03, 0x00, 0x04, 0x01, 0x00, 0x04, 0xC1, 0x07, 0x88, 0x40, 0x00, 
  0x88, 0x40, 0x00, 0x70, 0x40, 0x00, 0x20, 0x40, 0x00, 0x20, 0x40, 0x00, 
  0xE0, 0x7F, 0x00, };
