#define cpu_width 19
#define cpu_height 13
static char cpu_bits[] = {
  0x00, 0x00, 0x00, 0x80, 0x0A, 0x00, 0x80, 0x0A, 0x00, 0xC0, 0x1F, 0x00, 
  0x70, 0x70, 0x00, 0x40, 0x17, 0x00, 0x70, 0x75, 0x00, 0x40, 0x17, 0x00, 
  0x70, 0x70, 0x00, 0xC0, 0x1F, 0x00, 0x80, 0x0A, 0x00, 0x80, 0x0A, 0x00, 
  0x00, 0x00, 0x00, };
