#define mem_width 19
#define mem_height 13
static char mem_bits[] = {
  0x00, 0x00, 0x00, 0x00, 0x00, 0x00, 0xFC, 0xFF, 0x01, 0x06, 0x00, 0x03, 
  0xB2, 0x6D, 0x02, 0xB2, 0x6D, 0x02, 0xB2, 0x6D, 0x02, 0x06, 0x00, 0x03, 
  0xFC, 0xFF, 0x01, 0x50, 0x55, 0x00, 0xF0, 0x7F, 0x00, 0x00, 0x00, 0x00, 
  0x00, 0x00, 0x00, };
