#define sound_width 19
#define sound_height 13
static char sound_bits[] = {
  0x00, 0x00, 0x00, 0x00, 0x07, 0x00, 0x80, 0x07, 0x00, 0xC0, 0x07, 0x00, 
  0xDC, 0x07, 0x00, 0xDE, 0x0F, 0x00, 0xDE, 0x17, 0x00, 0xDE, 0x0F, 0x00, 
  0xDC, 0x07, 0x00, 0xC0, 0x07, 0x00, 0x80, 0x07, 0x00, 0x00, 0x07, 0x00, 
  0x00, 0x00, 0x00, };
