#define sound_width 19
#define sound_height 13
static char sound_bits[] = {
  0x00, 0x00, 0x00, 0x00, 0x07, 0x00, 0x80, 0x07, 0x00, 0xC0, 0x37, 0x00, 
  0xDC, 0x47, 0x00, 0xDE, 0x4F, 0x00, 0xDE, 0x57, 0x00, 0xDE, 0x4F, 0x00, 
  0xDC, 0x47, 0x00, 0xC0, 0x37, 0x00, 0x80, 0x07, 0x00, 0x00, 0x07, 0x00, 
  0x00, 0x00, 0x00, };
