#define sound_width 19
#define sound_height 13
static char sound_bits[] = {
  0x00, 0x00, 0x00, 0x00, 0xC7, 0x00, 0x80, 0x07, 0x01, 0xC0, 0x37, 0x01, 
  0xDC, 0x47, 0x02, 0xDE, 0x4F, 0x02, 0xDE, 0x57, 0x02, 0xDE, 0x4F, 0x02, 
  0xDC, 0x47, 0x02, 0xC0, 0x37, 0x01, 0x80, 0x07, 0x01, 0x00, 0xC7, 0x00, 
  0x00, 0x00, 0x00, };
