#define batt_idle_width 19
#define batt_idle_height 13
static char batt_idle_bits[] = {
  0x00, 0x00, 0x00, 0x00, 0x18, 0x00, 0x00, 0x0C, 0x00, 0x00, 0x06, 0x00, 
  0x00, 0x07, 0x00, 0x80, 0x03, 0x00, 0xC0, 0x1F, 0x00, 0x00, 0x0E, 0x00, 
  0x00, 0x07, 0x00, 0x00, 0x03, 0x00, 0x80, 0x01, 0x00, 0xC0, 0x00, 0x00, 
  0x40, 0x00, 0x00, };
