#define 1549077222986_width 19
#define 1549077222986_height 13
static char 1549077222986_bits[] = {
  0x00, 0x02, 0x00, 0x10, 0x42, 0x00, 0x20, 0x22, 0x00, 0x40, 0x17, 0x00, 
  0x80, 0x0E, 0x00, 0x40, 0x1E, 0x00, 0x78, 0xFE, 0x00, 0x40, 0x1E, 0x00, 
  0x80, 0x0E, 0x00, 0x40, 0x17, 0x00, 0x20, 0x22, 0x00, 0x10, 0x42, 0x00, 
  0x00, 0x02, 0x00, };
