#define 1549078994824_width 20
#define 1549078994824_height 14
static char 1549078994824_bits[] = {
  0x00, 0x00, 0x00, 0x00, 0x3C, 0x00, 0x00, 0x7E, 0x00, 0x00, 0x46, 0x00, 
  0x00, 0x86, 0x00, 0x00, 0x86, 0x00, 0xC0, 0x5F, 0x00, 0xA0, 0x3F, 0x00, 
  0x10, 0x06, 0x00, 0x10, 0x06, 0x00, 0x20, 0x06, 0x00, 0xE0, 0x07, 0x00, 
  0xC0, 0x03, 0x00, 0x00, 0x00, 0x00, };
