#define 2d641fcf26554652b4f142a471b8a4db_width 20
#define 2d641fcf26554652b4f142a471b8a4db_height 14
static char 2d641fcf26554652b4f142a471b8a4db_bits[] = {
  0x00, 0x00, 0x00, 0x00, 0x3C, 0x00, 0x00, 0x7E, 0x00, 0x00, 0x46, 0x00, 
  0x00, 0x06, 0x00, 0x00, 0x46, 0x00, 0xC0, 0x1F, 0x00, 0x80, 0x3F, 0x00, 
  0x00, 0x06, 0x00, 0x10, 0x06, 0x00, 0x20, 0x06, 0x00, 0xE0, 0x07, 0x00, 
  0xC0, 0x03, 0x00, 0x00, 0x00, 0x00, };
