#define layout_full_width 20
#define layout_full_height 14
static char layout_full_bits[] = {
  0x00, 0x00, 0x00, 0xF0, 0xFF, 0x00, 0xF0, 0xFF, 0x00, 0xF0, 0xFF, 0x00, 
  0xF0, 0xFF, 0x00, 0xF0, 0xFF, 0x00, 0xF0, 0xFF, 0x00, 0xF0, 0xFF, 0x00, 
  0xF0, 0xFF, 0x00, 0xF0, 0xFF, 0x00, 0xF0, 0xFF, 0x00, 0xF0, 0xFF, 0x00, 
  0xF0, 0xFF, 0x00, 0x00, 0x00, 0x00, };
