#define 1549078930260_width 20
#define 1549078930260_height 14
static char 1549078930260_bits[] = {
  0x00, 0x00, 0x00, 0xF0, 0xFF, 0x00, 0xF0, 0xFF, 0x00, 0x30, 0xC6, 0x00, 
  0x30, 0xC6, 0x00, 0x30, 0xC6, 0x00, 0x30, 0xC6, 0x00, 0x30, 0xC6, 0x00, 
  0x30, 0xC6, 0x00, 0x30, 0xC6, 0x00, 0x30, 0xC6, 0x00, 0xF0, 0xFF, 0x00, 
  0xF0, 0xFF, 0x00, 0x00, 0x00, 0x00, };
