#define layout_mirror_width 20
#define layout_mirror_height 14
static char layout_mirror_bits[] = {
  0x00, 0x00, 0x00, 0xF0, 0xFF, 0x00, 0xF0, 0xFF, 0x00, 0x30, 0xC0, 0x00, 
  0x30, 0xC0, 0x00, 0x30, 0xC0, 0x00, 0xF0, 0xFF, 0x00, 0xF0, 0xFF, 0x00, 
  0x30, 0xC0, 0x00, 0x30, 0xC0, 0x00, 0x30, 0xC0, 0x00, 0xF0, 0xFF, 0x00, 
  0xF0, 0xFF, 0x00, 0x00, 0x00, 0x00, };
