#define 1549079343198_width 20
#define 1549079343198_height 14
static char 1549079343198_bits[] = {
  0x00, 0x00, 0x00, 0xF0, 0xFF, 0x00, 0x50, 0xA9, 0x00, 0xB0, 0xD6, 0x00, 
  0x50, 0xA9, 0x00, 0xB0, 0xD6, 0x00, 0x50, 0xA9, 0x00, 0x50, 0xA9, 0x00, 
  0xB0, 0xD6, 0x00, 0x50, 0xA9, 0x00, 0xB0, 0xD6, 0x00, 0x50, 0xA9, 0x00, 
  0xF0, 0xFF, 0x00, 0x00, 0x00, 0x00, };
