#define 1549078895324_width 20
#define 1549078895324_height 14
static char 1549078895324_bits[] = {
  0x00, 0x00, 0x00, 0xF0, 0xFF, 0x00, 0xF0, 0xFF, 0x00, 0xF0, 0xFF, 0x00, 
  0xF0, 0xFF, 0x00, 0xF0, 0xFF, 0x00, 0xF0, 0xFF, 0x00, 0xF0, 0xFF, 0x00, 
  0xF0, 0xFF, 0x00, 0xF0, 0xFF, 0x00, 0xF0, 0xFF, 0x00, 0xF0, 0xFF, 0x00, 
  0xF0, 0xFF, 0x00, 0x00, 0x00, 0x00, };
