#define skull_width 19
#define skull_height 13
static char skull_bits[] = {
  0xE0, 0x7F, 0x00, 0x30, 0xC0, 0x00, 0x18, 0x80, 0x01, 0x0C, 0x00, 0x03, 
  0x04, 0x00, 0x02, 0x3C, 0x0E, 0x02, 0x3C, 0x0E, 0x02, 0x3C, 0x0E, 0x02, 
  0x84, 0x00, 0x02, 0x0C, 0x00, 0x03, 0x08, 0xE0, 0x01, 0xA8, 0xEA, 0x00, 
  0xF8, 0x7F, 0x00, };
