#define 1549125769058_width 19
#define 1549125769058_height 13
static char 1549125769058_bits[] = {
  0x00, 0x00, 0x00, 0x00, 0x07, 0x00, 0x80, 0x07, 0x00, 0xC0, 0x07, 0x00, 
  0xDC, 0x07, 0x00, 0xDE, 0x07, 0x00, 0xDE, 0x07, 0x00, 0xDE, 0x07, 0x00, 
  0xDC, 0x07, 0x00, 0xC0, 0x07, 0x00, 0x80, 0x07, 0x00, 0x00, 0x07, 0x00, 
  0x00, 0x00, 0x00, };
