#define sound_mute_width 19
#define sound_mute_height 13
static char sound_mute_bits[] = {
  0x00, 0x00, 0x00, 0x00, 0x17, 0x04, 0x80, 0x17, 0x04, 0xC0, 0x27, 0x02, 
  0xDC, 0x27, 0x02, 0xDE, 0x47, 0x01, 0xDE, 0x87, 0x00, 0xDE, 0x47, 0x01, 
  0xDC, 0x27, 0x02, 0xC0, 0x27, 0x02, 0x80, 0x17, 0x04, 0x00, 0x17, 0x04, 
  0x00, 0x00, 0x00, };
